<svg width="50" height="61" viewBox="0 0 50 61" fill="none" xmlns="http://www.w3.org/2000/svg">
<rect x="2" y="5" width="48" height="48" rx="10" fill="white"/>
<path d="M34.4 33.16V48H31.42V46.76C30.6467 47.6933 29.5267 48.16 28.06 48.16C27.0467 48.16 26.1267 47.9333 25.3 47.48C24.4867 47.0267 23.8467 46.38 23.38 45.54C22.9133 44.7 22.68 43.7267 22.68 42.62C22.68 41.5133 22.9133 40.54 23.38 39.7C23.8467 38.86 24.4867 38.2133 25.3 37.76C26.1267 37.3067 27.0467 37.08 28.06 37.08C29.4333 37.08 30.5067 37.5133 31.28 38.38V33.16H34.4ZM28.6 45.6C29.3867 45.6 30.04 45.3333 30.56 44.8C31.08 44.2533 31.34 43.5267 31.34 42.62C31.34 41.7133 31.08 40.9933 30.56 40.46C30.04 39.9133 29.3867 39.64 28.6 39.64C27.8 39.64 27.14 39.9133 26.62 40.46C26.1 40.9933 25.84 41.7133 25.84 42.62C25.84 43.5267 26.1 44.2533 26.62 44.8C27.14 45.3333 27.8 45.6 28.6 45.6ZM42.4077 48.16C41.2743 48.16 40.2543 47.9267 39.3477 47.46C38.4543 46.98 37.7543 46.32 37.2477 45.48C36.741 44.64 36.4877 43.6867 36.4877 42.62C36.4877 41.5533 36.741 40.6 37.2477 39.76C37.7543 38.92 38.4543 38.2667 39.3477 37.8C40.2543 37.32 41.2743 37.08 42.4077 37.08C43.541 37.08 44.5543 37.32 45.4477 37.8C46.341 38.2667 47.041 38.92 47.5477 39.76C48.0543 40.6 48.3077 41.5533 48.3077 42.62C48.3077 43.6867 48.0543 44.64 47.5477 45.48C47.041 46.32 46.341 46.98 45.4477 47.46C44.5543 47.9267 43.541 48.16 42.4077 48.16ZM42.4077 45.6C43.2077 45.6 43.861 45.3333 44.3677 44.8C44.8877 44.2533 45.1477 43.5267 45.1477 42.62C45.1477 41.7133 44.8877 40.9933 44.3677 40.46C43.861 39.9133 43.2077 39.64 42.4077 39.64C41.6077 39.64 40.9477 39.9133 40.4277 40.46C39.9077 40.9933 39.6477 41.7133 39.6477 42.62C39.6477 43.5267 39.9077 44.2533 40.4277 44.8C40.9477 45.3333 41.6077 45.6 42.4077 45.6Z" fill="#E64D3D"/>
<path d="M11.4 19.6H0.2V13H30.7V19.6H19.5V48H11.4V19.6Z" fill="#E64D3D"/>
</svg>
