<svg width="27" height="32" viewBox="0 0 27 32" fill="none" xmlns="http://www.w3.org/2000/svg">
<g clip-path="url(#clip0)">
<path d="M13.5 15.8088C17.7609 15.8088 21.2143 12.3189 21.2143 8.01284C21.2143 3.70681 17.7609 0.216919 13.5 0.216919C9.23906 0.216919 5.78571 3.70681 5.78571 8.01284C5.78571 12.3189 9.23906 15.8088 13.5 15.8088ZM18.9 17.7577H17.8935C16.5556 18.379 15.067 18.7322 13.5 18.7322C11.933 18.7322 10.4504 18.379 9.10647 17.7577H8.1C3.62812 17.7577 0 21.4243 0 25.9434V28.4771C0 30.0911 1.29576 31.4006 2.89286 31.4006H24.1071C25.7042 31.4006 27 30.0911 27 28.4771V25.9434C27 21.4243 23.3719 17.7577 18.9 17.7577Z" fill="#DC4C3F"/>
</g>
<defs>
<clipPath id="clip0">
<rect width="27" height="31.1837" fill="white" transform="translate(0 0.216919)"/>
</clipPath>
</defs>
</svg>
